<svg height="512" viewBox="0 0 64 64" width="512" xmlns="http://www.w3.org/2000/svg">
    <g id="Filled_outline" data-name="Filled outline">
        <circle cx="32" cy="32" fill="#f9bb4b" r="29"/>
        <path d="m5.6 20h52.8a28.975 28.975 0 0 0 -4.5-7h-43.8a28.975 28.975 0 0 0 -4.5 7z" fill="#d3843d"/>
        <path d="m4.127 24h55.746a28.744 28.744 0 0 0 -1.473-4h-52.8a28.744 28.744 0 0 0 -1.473 4z" fill="#995f5b"/>
        <path d="m4.127 24a28.973 28.973 0 0 0 -1.127 8h58a28.973 28.973 0 0 0 -1.127-8z" fill="#d3843d"/>
        <path d="m60.144 39a29.047 29.047 0 0 0 .856-7h-58a29.047 29.047 0 0 0 .856 7z" fill="#995f5b"/>
        <path d="m7.815 48h48.37a28.839 28.839 0 0 0 3.959-9h-56.288a28.839 28.839 0 0 0 3.959 9z" fill="#d3843d"/>
        <path d="m56.185 48h-48.37a29.168 29.168 0 0 0 3.2 4h41.974a29.168 29.168 0 0 0 3.196-4z" fill="#995f5b"/>
        <circle cx="35" cy="40" fill="#f4f4e6" r="4"/>
        <path
            d="m32 2a30 30 0 1 0 30 30 30.034 30.034 0 0 0 -30-30zm0 2a27.9 27.9 0 0 1 19.569 8h-39.138a27.9 27.9 0 0 1 19.569-8zm0 56a27.875 27.875 0 0 1 -18.491-7h4.056c.1.108.2.217.3.325 1.077 1.191 2.191 2.421 5.817 3.624a25.638 25.638 0 0 0 7.566 1.063c.364 0 .634-.007.784-.013l-.07-2a24.431 24.431 0 0 1 -7.65-.95 10.666 10.666 0 0 1 -3.959-2.049h30.138a27.875 27.875 0 0 1 -18.491 7zm20.543-9h-41.086q-.888-.96-1.685-2h44.456q-.796 1.04-1.685 2zm3.082-4h-47.25a27.864 27.864 0 0 1 -3.2-7h24.825a5 5 0 0 0 10 0h18.829a27.864 27.864 0 0 1 -3.204 7zm-23.625-7a3 3 0 1 1 3 3 3 3 0 0 1 -3-3zm27.346-2h-19.77a4.99 4.99 0 0 0 -9.152 0h-25.77a27.988 27.988 0 0 1 -.629-5h55.95a27.988 27.988 0 0 1 -.629 5zm.629-7h-55.95a27.914 27.914 0 0 1 .861-6h54.228a27.914 27.914 0 0 1 .861 6zm-1.467-8h-53.016c.231-.678.482-1.346.762-2h51.492c.28.654.531 1.322.762 2zm-1.72-4h-49.576a28.086 28.086 0 0 1 3.363-5h42.85a28.086 28.086 0 0 1 3.363 5z"/>
        <path d="m40 8h2v2h-2z"/>
        <path d="m35 6h2v2h-2z"/>
        <path d="m34 56h2v2h-2z"/>
    </g>
</svg>
